# xmcd
#
# Track frame offsets:
#	150
#	22618
#	43286
#	60545
#	77445
#	106331
#	130569
#	153523
#	172004
#	186028
#	205567
#	220545
#
# Disc length: 3218 seconds
# Revision: 1
# Processed by: cddbd v1.5.2PL0 Copyright (c) Steve Scherf et al.
# Submitted via: dBpowerAMP V12.0
#
DISCID=8d0c900c
DTITLE=Cuddy, Jim - Countrywide Soul
DYEAR=2019
DGENRE=Country
TTITLE0=All in Time
TTITLE1=Countrywide Soul
TTITLE2=Clearer View
TTITLE3=Everybody Cries
TTITLE4=Dragging On
TTITLE5=The Light That Guides You Home
TTITLE6=Glorious Day
TTITLE7=Maybe Sometime
TTITLE8=Back Here Again
TTITLE9=Almost Persuaded
TTITLE10=Rhinestone Cowboy
TTITLE11=Wash Me Down
EXTD=
EXTT0=
EXTT1=
EXTT2=
EXTT3=
EXTT4=
EXTT5=
EXTT6=
EXTT7=
EXTT8=
EXTT9=
EXTT10=
EXTT11=
PLAYORDER=
